<svg data-v-0dd9719b="" version="1.0" xmlns="http://www.w3.org/2000/svg" xmlns:xlink="http://www.w3.org/1999/xlink" width="100%" height="100%" viewBox="0 0 340.000000 250.000000" preserveAspectRatio="xMidYMid meet" color-interpolation-filters="sRGB" style="margin: auto;">   <g data-v-0dd9719b="" class="iconmbgsvg" transform="translate(85.00499725341797,22.647377014160156)"><g fill="#000000" hollow-target="textNormalTran"><g opacity="0.55" transform="translate(15.995002746582031,0)"><g><rect fill="#000000" fill-opacity="0" stroke-width="2" x="0" y="0" width="126.00000000000001" height="142.9625007091394" class="image-rect"></rect> <svg x="0" y="0" width="126.00000000000001" height="142.9625007091394" filtersec="colorsb5505827425" class="image-svg-svg primary" style="overflow: visible;"><svg xmlns="http://www.w3.org/2000/svg" viewBox="0.0030517578125 -0.019989013671875 401.24383544921875 455.2599792480469"><defs><linearGradient id="ab93ca5e0-adea-403f-976e-9430d42eab32" x1="1124.27" y1="779" x2="846.74" y2="342.33" gradientUnits="userSpaceOnUse"><stop offset="0" stop-color="#cce70b"></stop><stop offset="1" stop-color="#00bcc6"></stop></linearGradient><linearGradient id="bfe2c5ac9-b028-4067-a7d9-394243c056ab" x1="1125.45" y1="778.24" x2="847.93" y2="341.57" gradientUnits="userSpaceOnUse"><stop offset="0" stop-color="#cce70b"></stop><stop offset="1" stop-color="#00bcc6"></stop></linearGradient><linearGradient id="c5418ed93-eb74-4f42-85b6-2220c9f3c136" x1="1132.06" y1="774.05" x2="854.53" y2="337.38" gradientUnits="userSpaceOnUse"><stop offset="0" stop-color="#cce70b"></stop><stop offset="1" stop-color="#00bcc6"></stop></linearGradient><linearGradient id="dc44b8900-9fa1-4aed-ad4a-7d214437f008" x1="1173.07" y1="747.98" x2="895.54" y2="311.31" gradientUnits="userSpaceOnUse"><stop offset="0" stop-color="#cce70b"></stop><stop offset="1" stop-color="#00bcc6"></stop></linearGradient><linearGradient id="e280748a7-f50b-4ee2-a9d4-3fa8bc977d79" x1="1004.34" y1="855.22" x2="726.82" y2="418.55" gradientUnits="userSpaceOnUse"><stop offset="0" stop-color="#cce70b"></stop><stop offset="1" stop-color="#00bcc6"></stop></linearGradient><linearGradient id="f14aed4a1-e5cc-4ba8-9a1c-fb6e9c081b96" x1="1003.15" y1="855.97" x2="725.63" y2="419.3" gradientUnits="userSpaceOnUse"><stop offset="0" stop-color="#cce70b"></stop><stop offset="1" stop-color="#00bcc6"></stop></linearGradient><linearGradient id="g2a629427-9fd0-4501-b242-7b21ab2a8ae5" x1="996.55" y1="860.17" x2="719.03" y2="423.5" gradientUnits="userSpaceOnUse"><stop offset="0" stop-color="#cce70b"></stop><stop offset="1" stop-color="#00bcc6"></stop></linearGradient><linearGradient id="h34275c3b-fb7e-4c0f-8ff7-00e7000355ea" x1="955.54" y1="886.23" x2="678.02" y2="449.56" gradientUnits="userSpaceOnUse"><stop offset="0" stop-color="#cce70b"></stop><stop offset="1" stop-color="#00bcc6"></stop></linearGradient><linearGradient id="ibeeaf9ed-4de8-4c46-a7a1-3f19a49dc9f1" x1="1047.57" y1="827.75" x2="770.04" y2="391.08" gradientUnits="userSpaceOnUse"><stop offset="0" stop-color="#cce70b"></stop><stop offset="1" stop-color="#00bcc6"></stop></linearGradient><linearGradient id="j144c78f7-517d-40dc-898b-e06f99208c31" x1="1008.32" y1="852.69" x2="730.79" y2="416.02" gradientUnits="userSpaceOnUse"><stop offset="0" stop-color="#cce70b"></stop><stop offset="1" stop-color="#00bcc6"></stop></linearGradient><linearGradient id="k63ab98a9-048b-4b48-85fa-03338ca4e446" x1="970.63" y1="876.64" x2="693.11" y2="439.97" gradientUnits="userSpaceOnUse"><stop offset="0" stop-color="#cce70b"></stop><stop offset="1" stop-color="#00bcc6"></stop></linearGradient><linearGradient id="la603b93d-9905-4b12-a9a5-9d03106621cf" x1="1026.46" y1="841.15" x2="748.94" y2="404.49" gradientUnits="userSpaceOnUse"><stop offset="0" stop-color="#cce70b"></stop><stop offset="1" stop-color="#00bcc6"></stop></linearGradient><linearGradient id="m176ab860-5f03-4d0c-91eb-7466bd944204" x1="1081.04" y1="806.47" x2="803.52" y2="369.8" gradientUnits="userSpaceOnUse"><stop offset="0" stop-color="#cce70b"></stop><stop offset="1" stop-color="#00bcc6"></stop></linearGradient><linearGradient id="ne2f1fd25-707b-4d07-8094-8787981958b8" x1="1120.3" y1="781.53" x2="842.77" y2="344.84" gradientUnits="userSpaceOnUse"><stop offset="0" stop-color="#cce70b"></stop><stop offset="1" stop-color="#00bcc6"></stop></linearGradient><linearGradient id="o574ccb4e-ad65-481c-bdaf-bbde48a2a016" x1="1157.98" y1="757.58" x2="880.45" y2="320.9" gradientUnits="userSpaceOnUse"><stop offset="0" stop-color="#cce70b"></stop><stop offset="1" stop-color="#00bcc6"></stop></linearGradient><linearGradient id="p970b5e48-dec1-4eae-9fb1-fd1a51d0ae3c" x1="1102.15" y1="793.06" x2="824.61" y2="356.38" gradientUnits="userSpaceOnUse"><stop offset="0" stop-color="#cce70b"></stop><stop offset="1" stop-color="#00bcc6"></stop></linearGradient><linearGradient id="qf2a7f529-feed-40eb-809c-129d39459d8d" x1="989.6" y1="864.58" x2="712.08" y2="427.91" gradientUnits="userSpaceOnUse"><stop offset="0" stop-color="#cce70b"></stop><stop offset="1" stop-color="#00bcc6"></stop></linearGradient><linearGradient id="rd9a98c62-fe62-4b2d-8cc5-90fd7eafc21d" x1="947.17" y1="891.57" x2="669.63" y2="454.88" gradientUnits="userSpaceOnUse"><stop offset="0" stop-color="#cce70b"></stop><stop offset="1" stop-color="#00bcc6"></stop></linearGradient><linearGradient id="s875f79ee-498c-40be-a2f3-52f81d90f328" x1="904.4" y1="918.74" x2="626.87" y2="482.07" gradientUnits="userSpaceOnUse"><stop offset="0" stop-color="#cce70b"></stop><stop offset="1" stop-color="#00bcc6"></stop></linearGradient><linearGradient id="t3e4bc1d9-85f2-4e58-a4c1-f844871758a2" x1="917.7" y1="910.28" x2="640.18" y2="473.61" gradientUnits="userSpaceOnUse"><stop offset="0" stop-color="#cce70b"></stop><stop offset="1" stop-color="#00bcc6"></stop></linearGradient><linearGradient id="uca688990-b501-469f-b04e-6a418407b6c3" x1="1139.01" y1="769.63" x2="861.48" y2="332.96" gradientUnits="userSpaceOnUse"><stop offset="0" stop-color="#cce70b"></stop><stop offset="1" stop-color="#00bcc6"></stop></linearGradient><linearGradient id="v52a00656-3054-44df-95ac-76894af6788d" x1="1181.45" y1="742.67" x2="903.92" y2="305.98" gradientUnits="userSpaceOnUse"><stop offset="0" stop-color="#cce70b"></stop><stop offset="1" stop-color="#00bcc6"></stop></linearGradient><linearGradient id="wc1cc6832-f4c3-49c0-8f5a-87a2a941f53d" x1="1224.22" y1="715.48" x2="946.69" y2="278.81" gradientUnits="userSpaceOnUse"><stop offset="0" stop-color="#cce70b"></stop><stop offset="1" stop-color="#00bcc6"></stop></linearGradient><linearGradient id="xe8ee7b19-8b02-4204-9302-2936d2f16030" x1="1210.9" y1="723.93" x2="933.38" y2="287.27" gradientUnits="userSpaceOnUse"><stop offset="0" stop-color="#cce70b"></stop><stop offset="1" stop-color="#00bcc6"></stop></linearGradient></defs><path d="M932.79 441.89v1.75c-.32 8.6-6.73 21.65-27.91 18.5a29.61 29.61 0 1 0 24.66 32.08c0-.08.58-9.67 5.29-17.11 3.62-5.72 10.23-9.93 21.59-9.39h1.23a24.88 24.88 0 1 0-24.86-25.84z" transform="translate(-699.82 -331.69)" fill="url(#ab93ca5e0-adea-403f-976e-9430d42eab32)"></path><path d="M916.93 420.46a18.87 18.87 0 1 0-18.86 18.87 18.87 18.87 0 0 0 18.86-18.87z" transform="translate(-699.82 -331.69)" fill="url(#bfe2c5ac9-b028-4067-a7d9-394243c056ab)"></path><path d="M854.88 409.6a22.41 22.41 0 0 0 22.3-20.23 34.36 34.36 0 0 1 2.94-11.12c2.38-4.66 6.73-8.61 14.84-8.94h3.48a18.82 18.82 0 1 0-18.8-19.55 2 2 0 0 0 0 .29v1.04c-.24 6.5-5.09 16.37-21.11 14a23.15 23.15 0 0 0-3.65-.3 22.4 22.4 0 1 0 0 44.8z" transform="translate(-699.82 -331.69)" fill="url(#c5418ed93-eb74-4f42-85b6-2220c9f3c136)"></path><path d="M941.53 399.08a15.42 15.42 0 1 0-15.42-15.41 15.41 15.41 0 0 0 15.42 15.41z" transform="translate(-699.82 -331.69)" fill="url(#dc44b8900-9fa1-4aed-ad4a-7d214437f008)"></path><path d="M868.09 676.67v-1.75c.31-8.6 6.72-21.65 27.9-18.5a30.76 30.76 0 0 0 4.83.39 29.62 29.62 0 1 0-29.48-32.48c-.05.08-.58 9.67-5.29 17.11-3.62 5.73-10.23 9.93-21.59 9.39h-1.23a24.88 24.88 0 1 0 24.85 25.84z" transform="translate(-699.82 -331.69)" fill="url(#e280748a7-f50b-4ee2-a9d4-3fa8bc977d79)"></path><path d="M884 698.11a18.87 18.87 0 1 0 18.87-18.87A18.87 18.87 0 0 0 884 698.11z" transform="translate(-699.82 -331.69)" fill="url(#f14aed4a1-e5cc-4ba8-9a1c-fb6e9c081b96)"></path><path d="M946 709a22.41 22.41 0 0 0-22.3 20.23 34.36 34.36 0 0 1-2.94 11.12c-2.38 4.66-6.73 8.61-14.85 8.94H902.44a18.82 18.82 0 1 0 18.8 19.54 2 2 0 0 0 0-.29v-.44-.6c.24-6.5 5.09-16.37 21.11-14a23 23 0 0 0 3.65.3 22.4 22.4 0 1 0 0-44.8z" transform="translate(-699.82 -331.69)" fill="url(#g2a629427-9fd0-4501-b242-7b21ab2a8ae5)"></path><path d="M859.36 719.48a15.42 15.42 0 1 0 15.41 15.41 15.42 15.42 0 0 0-15.41-15.41z" transform="translate(-699.82 -331.69)" fill="url(#h34275c3b-fb7e-4c0f-8ff7-00e7000355ea)"></path><path d="M815 472.57s1.28.76 1.51.88c7.29 4.57 15.39 16.65 2.07 33.42a29.62 29.62 0 1 0 40.12-5.31c0-.08-8.08-5.34-12.18-13.14-3.14-6-3.48-13.82 2.67-23.39l.61-1.07a24.88 24.88 0 1 0-34.8 8.61z" transform="translate(-699.82 -331.69)" fill="url(#ibeeaf9ed-4de8-4c46-a7a1-3f19a49dc9f1)"></path><path d="M762.69 482.49a18.87 18.87 0 1 0 25.77-6.9 18.88 18.88 0 0 0-25.77 6.9z" transform="translate(-699.82 -331.69)" fill="url(#j144c78f7-517d-40dc-898b-e06f99208c31)"></path><path d="M708.61 472.55l.24.15.38.23.53.29c5.51 3.45 11.64 12.59 1.56 25.27a22.4 22.4 0 1 0 30.34-4 35 35 0 0 1-8.16-8.11c-2.84-4.39-4.09-10.13-.31-17.33.37-.72 1.25-2.2 1.25-2.2.17-.26.34-.53.5-.8a18.82 18.82 0 1 0-26.33 6.51z" transform="translate(-699.82 -331.69)" fill="url(#k63ab98a9-048b-4b48-85fa-03338ca4e446)"></path><path d="M761.19 449.24a15.41 15.41 0 1 0-5.64-21.05 15.41 15.41 0 0 0 5.64 21.05z" transform="translate(-699.82 -331.69)" fill="url(#la603b93d-9905-4b12-a9a5-9d03106621cf)"></path><path d="M985.93 646l-1.52-.88c-7.28-4.57-15.38-16.65-2.06-33.41a29 29 0 0 0 2.76-4 29.62 29.62 0 1 0-42.88 9.29c0 .08 8.08 5.34 12.17 13.14 3.15 6 3.49 13.82-2.66 23.39l-.62 1.07a24.88 24.88 0 1 0 34.81-8.6z" transform="translate(-699.82 -331.69)" fill="url(#m176ab860-5f03-4d0c-91eb-7466bd944204)"></path><path d="M1038.2 636.07a18.87 18.87 0 1 0-25.78 6.9 18.87 18.87 0 0 0 25.78-6.9z" transform="translate(-699.82 -331.69)" fill="url(#ne2f1fd25-707b-4d07-8094-8787981958b8)"></path><path d="M1092.28 646l-.25-.15-.37-.23-.53-.28c-5.51-3.46-11.64-12.59-1.56-25.28a22.4 22.4 0 1 0-30.34 4 34.52 34.52 0 0 1 8.15 8.1c2.85 4.39 4.09 10.13.32 17.33-.38.72-1.26 2.2-1.26 2.2-.17.26-.33.53-.49.8a18.82 18.82 0 1 0 26.33-6.51z" transform="translate(-699.82 -331.69)" fill="url(#o574ccb4e-ad65-481c-bdaf-bbde48a2a016)"></path><path d="M1039.69 669.32a15.41 15.41 0 1 0 5.64 21 15.42 15.42 0 0 0-5.64-21z" transform="translate(-699.82 -331.69)" fill="url(#p970b5e48-dec1-4eae-9fb1-fd1a51d0ae3c)"></path><path d="M856.63 619.22a29.62 29.62 0 0 0-27.07-52.61c-.09 0-8.66 4.33-17.46 4-6.77-.27-13.72-3.89-18.93-14l-.61-1.07a24.89 24.89 0 1 0-9.95 34.46l1.52-.87c7.6-4 22.11-5 30 14.91a29.61 29.61 0 0 0 42.53 15.22z" transform="translate(-699.82 -331.69)" fill="url(#qf2a7f529-feed-40eb-809c-129d39459d8d)"></path><path d="M772 614.41a18.87 18.87 0 1 0 25.78 6.91 18.88 18.88 0 0 0-25.78-6.91z" transform="translate(-699.82 -331.69)" fill="url(#rd9a98c62-fe62-4b2d-8cc5-90fd7eafc21d)"></path><path d="M764.93 664.39a34.45 34.45 0 0 1-11.1 3c-5.23.27-10.82-1.52-15.16-8.39-.44-.68-1.28-2.19-1.28-2.19-.14-.28-.29-.55-.45-.83a18.82 18.82 0 1 0-7.52 26.06l.25-.14.38-.21.52-.31c5.74-3 16.72-3.79 22.66 11.28a22.4 22.4 0 1 0 11.69-28.28z" transform="translate(-699.82 -331.69)" fill="url(#s875f79ee-498c-40be-a2f3-52f81d90f328)"></path><path d="M720.11 598.16a15.42 15.42 0 1 0 21.06 5.64 15.4 15.4 0 0 0-21.06-5.64z" transform="translate(-699.82 -331.69)" fill="url(#t3e4bc1d9-85f2-4e58-a4c1-f844871758a2)"></path><path d="M1008.33 563.05a24.88 24.88 0 1 0 9.95-34.45l-1.52.87c-7.6 4-22.11 5-30-14.91A29.62 29.62 0 1 0 971.32 552c.1 0 8.67-4.33 17.47-4 6.77.27 13.71 3.9 18.92 14z" transform="translate(-699.82 -331.69)" fill="url(#uca688990-b501-469f-b04e-6a418407b6c3)"></path><path d="M1028.91 504.15a18.87 18.87 0 1 0-25.77-6.91 18.87 18.87 0 0 0 25.77 6.91z" transform="translate(-699.82 -331.69)" fill="url(#v52a00656-3054-44df-95ac-76894af6788d)"></path><path d="M1036 454.17a34.63 34.63 0 0 1 11.1-3c5.22-.27 10.82 1.52 15.16 8.39.43.69 1.28 2.19 1.28 2.19.14.28.29.55.45.83a18.82 18.82 0 1 0 7.52-26.05l-.25.13-.39.21-.51.31c-5.75 3.05-16.72 3.79-22.67-11.28a21.66 21.66 0 0 0-1.57-3.31 22.4 22.4 0 1 0-10.12 31.58z" transform="translate(-699.82 -331.69)" fill="url(#wc1cc6832-f4c3-49c0-8f5a-87a2a941f53d)"></path><path d="M1065.36 493.71a15.41 15.41 0 1 0 21.06 5.64 15.4 15.4 0 0 0-21.06-5.64z" transform="translate(-699.82 -331.69)" fill="url(#xe8ee7b19-8b02-4204-9302-2936d2f16030)"></path></svg></svg> <!----></g></g> <g transform="translate(0,143.25724601745605)"><g data-gra="path-name" fill-rule="" class="tp-name" transform="translate(0,0)"><g transform="scale(1)"><g><path d="M26.26-9.73L21.09-9.73 19.69-9.73 19.69-6.92 21.09-6.92 26.26-6.92 26.26-1.68 21.09-1.68 19.69-1.68 19.69 1.13 21.09 1.13 26.26 1.13 26.26 7.77 26.26 9.18 29.08 9.18 29.08 7.77 29.08 1.13 35.27 1.13 36.68 1.13 36.68-1.68 35.27-1.68 29.08-1.68 29.08-6.92 35.27-6.92 36.68-6.92 36.68-9.73 35.27-9.73 29.08-9.73 29.08-14.67 35.27-14.67 36.68-14.67 36.68-16.08 36.68-22.14 39.17-22.14 40.57-22.14 40.57-24.96 39.17-24.96 36.68-24.96 36.68-31.02 36.68-32.43 35.27-32.43 29.08-32.43 29.08-34.75 29.08-36.16 26.26-36.16 26.26-34.75 26.26-32.43 21.09-32.43 19.69-32.43 19.69-29.61 21.09-29.61 26.26-29.61 26.26-24.96 17.8-24.96 16.4-24.96 16.4-22.14 17.8-22.14 26.26-22.14 26.26-17.49 21.09-17.49 19.69-17.49 19.69-14.67 21.09-14.67 26.26-14.67ZM29.08-22.14L33.86-22.14 33.86-17.49 29.08-17.49ZM29.08-24.96L29.08-29.61 33.86-29.61 33.86-24.96ZM13.65-5.39L17.8-5.39 19.21-5.39 19.21-8.2 17.8-8.2 10.81-8.2 10.81-17.19 15.2-17.19 16.61-17.19 16.61-20 15.2-20 10.81-20 10.81-29.61 15.2-29.61 16.61-29.61 16.61-32.43 15.2-32.43 9.4-32.43 8-32.43 8-31.02 8-8.2 5.83-8.2 4.43-8.2 4.43-5.39 5.83-5.39 10.72-5.39 8.05 3.64 9.4 5.44 15.2 5.44 16.61 5.44 16.61 2.63 15.2 2.63 11.28 2.63C11.96 0.33 13.11-3.56 13.65-5.39ZM71.43-20.09L71.43-21.5 68.62-21.5 68.62-20.09 68.62 4.73 68.62 6.14 71.43 6.14 71.43 4.73ZM68.13-32.14L68.13-33.54 65.31-33.54 65.31-32.14 65.31-26.12 65.31-24.71 66.72-24.71 75.13-24.71 75.13 4.73 75.13 6.14 77.95 6.14 77.95 4.73 77.95-24.71 81.4-24.71 81.4 4.73 81.4 6.14 84.21 6.14 84.21 4.73 84.21-26.12 84.21-27.52 82.81-27.52 68.13-27.52ZM53.93-32.14L53.93-33.54 51.12-33.54 51.12-32.14 51.12-25.98 51.12-24.57 52.53-24.57 58.02-24.57 58.02-12.3 51.83-8.76 53.23-6.32 58.02-9.06 58.02 4.73 58.02 6.14 60.83 6.14 60.83 4.73 60.83-10.67 63.96-12.46 62.57-14.9 60.83-13.91 60.83-24.57 63.26-24.57 64.67-24.57 64.67-27.38 63.26-27.38 60.83-27.38 60.83-32.14 60.83-33.54 58.02-33.54 58.02-32.14 58.02-27.38 53.93-27.38ZM96.7-33.25L95.3-33.25 95.3-30.44 96.7-30.44 98.56-30.44 98.56-0.11 96.7-0.11 95.3-0.11 95.3 2.7 96.7 2.7 105.24 2.7 105.24 7.22 105.24 8.63 108.06 8.63 108.06 7.22 108.06 2.7 110.09 2.7 111.49 2.7 111.49-0.11 110.09-0.11 108.06-0.11 108.06-30.44 110.09-30.44 111.49-30.44 111.49-33.25 110.09-33.25ZM120.62-5.64L126.47 4.21 128.89 2.77 122.03-8.78 122.03-12.93 127.68-12.93 129.08-12.93 129.08-15.74 127.68-15.74 122.03-15.74 122.03-24.64 127.68-24.64 129.08-24.64 129.08-27.45 127.68-27.45 125.56-27.45 125.56-31.85 125.56-33.25 122.74-33.25 122.74-31.85 122.74-27.45 118.5-27.45 118.5-31.85 118.5-33.25 115.69-33.25 115.69-31.85 115.69-27.45 113.57-27.45 112.16-27.45 112.16-24.64 113.57-24.64 119.22-24.64 119.22-15.74 113.57-15.74 112.16-15.74 112.16-12.93 113.57-12.93 119.22-12.93 119.22-8.78C118.08-6.85 112.36 2.77 112.36 2.77L114.78 4.21ZM105.24-22.9L101.37-22.9 101.37-30.44 105.24-30.44ZM105.24-20.09L105.24-11.97 101.37-11.97 101.37-20.09ZM105.24-9.16L105.24-0.11 101.37-0.11 101.37-9.16ZM141.98-16.76L140.58-16.76 140.58-13.94 141.98-13.94 153.58-13.94 144.63 2.89 145.87 4.96 168.57 4.96 169.98 4.96 169.98 3.55 169.98-5.9 169.98-7.3 167.17-7.3 167.17-5.9 167.17 2.15 148.21 2.15C150.43-2.02 155.34-11.26 156.77-13.94L173.02-13.94 174.42-13.94 174.42-16.76 173.02-16.76ZM148.19-31.94L146.78-31.94 146.78-29.13 148.19-29.13 166.81-29.13 168.22-29.13 168.22-31.94 166.81-31.94Z" transform="translate(-4.429999828338623, 36.15999984741211)"></path></g> <!----> <!----> <!----> <!----> <!----> <!----> <!----></g></g> <g data-gra="path-slogan" fill-rule="" class="tp-slogan" fill="#000000" transform="translate(4.8650054931640625,52.34000015258789)"><rect width="0"></rect> <rect x="163.25999450683594" width="0"></rect> <g transform="translate(0,0)"><g transform="scale(1)"><path d="M4.01-0.84L4.48-0.84Q5.59-0.85 6.13-1.39Q6.67-1.93 6.84-3.14L6.84-3.14L7.50-8.58L8.92-8.58L8.27-3.22Q8.02-1.28 7.08-0.41Q6.14 0.47 4.32 0.48L4.32 0.48L3.85 0.48Q2.26 0.47 1.51-0.20Q0.77-0.88 0.77-2.32L0.77-2.32Q0.77-2.68 0.83-3.22L0.83-3.22L1.49-8.58L2.90-8.58L2.24-3.14Q2.20-2.66 2.20-2.50L2.20-2.50Q2.20-1.62 2.62-1.24Q3.04-0.85 4.01-0.84L4.01-0.84ZM9.53 0.43L10.63-8.58L11.99-8.58L15.61-1.94L15.67-1.84L16.50-8.58L17.86-8.58L16.75 0.43L15.40 0.43L11.76-6.18L11.71-6.29L10.88 0.43L9.53 0.43ZM19.63-8.58L23.52-8.58Q24.74-8.57 25.40-8.01Q26.06-7.45 26.06-6.40L26.06-6.40Q26.06-6.26 26.04-5.98L26.04-5.98L25.99-5.58Q25.85-4.49 25.23-3.85Q24.61-3.22 23.57-3.05L23.57-3.05L26.02 0.43L24.29 0.43L22.01-2.99L20.36-2.99L19.94 0.43L18.53 0.43L19.63-8.58ZM20.52-4.28L23.03-4.28Q23.71-4.30 24.09-4.57Q24.47-4.85 24.55-5.52L24.55-5.52L24.62-6.04Q24.64-6.12 24.64-6.26L24.64-6.26Q24.64-6.80 24.32-7.04Q24.01-7.27 23.40-7.28L23.40-7.28L20.89-7.28L20.52-4.28ZM27.10 0.43L28.20-8.58L34.01-8.58L33.85-7.28L29.46-7.28L29.15-4.78L32.99-4.78L32.83-3.49L28.99-3.49L28.67-0.88L33.17-0.88L33.01 0.43L27.10 0.43ZM36.72 0.48L36.56 0.48Q34.99 0.48 33.97 0.32L33.97 0.32L34.14-1.02Q35.60-0.84 36.72-0.84L36.72-0.84L36.88-0.84Q37.63-0.84 38.07-0.98Q38.51-1.13 38.70-1.40Q38.89-1.68 38.94-2.11L38.94-2.11Q38.96-2.33 38.96-2.41L38.96-2.41Q38.96-2.83 38.77-3.05Q38.58-3.26 38.20-3.35Q37.82-3.44 37.07-3.54L37.07-3.54Q36.20-3.64 35.70-3.84Q35.20-4.04 34.95-4.43Q34.70-4.82 34.70-5.48L34.70-5.48Q34.70-5.75 34.74-6.07L34.74-6.07Q34.90-7.43 35.65-8.00Q36.41-8.58 37.97-8.58L37.97-8.58L38.81-8.58Q39.72-8.58 40.82-8.56L40.82-8.56L40.67-7.24Q40.03-7.24 39.70-7.25L39.70-7.25L38.65-7.26L37.81-7.26Q36.94-7.26 36.53-6.95Q36.13-6.65 36.13-5.80L36.13-5.80Q36.13-5.42 36.28-5.24Q36.42-5.05 36.67-4.98Q36.92-4.91 37.49-4.82L37.49-4.82Q37.60-4.81 37.92-4.76L37.92-4.76Q38.81-4.63 39.34-4.42Q39.86-4.20 40.13-3.80Q40.39-3.40 40.39-2.71L40.39-2.71Q40.39-2.46 40.36-2.17L40.36-2.17Q40.24-1.18 39.83-0.60Q39.43-0.02 38.68 0.23Q37.92 0.48 36.72 0.48L36.72 0.48ZM44.48-7.26L41.68-7.26L41.83-8.58L48.95-8.58L48.79-7.26L45.90-7.26L44.98 0.43L43.56 0.43L44.48-7.26ZM50.09-8.58L53.98-8.58Q55.20-8.57 55.86-8.01Q56.52-7.45 56.52-6.40L56.52-6.40Q56.52-6.26 56.50-5.98L56.50-5.98L56.45-5.58Q56.30-4.49 55.69-3.85Q55.07-3.22 54.02-3.05L54.02-3.05L56.47 0.43L54.74 0.43L52.46-2.99L50.82-2.99L50.40 0.43L48.98 0.43L50.09-8.58ZM50.98-4.28L53.48-4.28Q54.17-4.30 54.55-4.57Q54.92-4.85 55.01-5.52L55.01-5.52L55.08-6.04Q55.09-6.12 55.09-6.26L55.09-6.26Q55.09-6.80 54.78-7.04Q54.47-7.27 53.86-7.28L53.86-7.28L51.35-7.28L50.98-4.28ZM61.14-8.58L63.06-8.58Q63.73-8.58 63.84-7.93L63.84-7.93L65.21 0.43L63.71 0.43L63.31-2.17L59.44-2.17L58.39 0.43L56.84 0.43L60.30-8.03Q60.53-8.58 61.14-8.58L61.14-8.58ZM62.53-7.26L61.49-7.26L59.96-3.49L63.11-3.49L62.53-7.26ZM66.28 0.43L67.38-8.58L68.80-8.58L67.69 0.43L66.28 0.43ZM69.47 0.43L70.57-8.58L71.93-8.58L75.55-1.94L75.61-1.84L76.44-8.58L77.80-8.58L76.69 0.43L75.34 0.43L71.70-6.18L71.65-6.29L70.82 0.43L69.47 0.43ZM78.47 0.43L79.57-8.58L85.38-8.58L85.22-7.28L80.83-7.28L80.52-4.78L84.36-4.78L84.20-3.49L80.36-3.49L80.04-0.88L84.54-0.88L84.38 0.43L78.47 0.43ZM86.84-8.58L90.56-8.58Q92.15-8.57 92.89-7.89Q93.64-7.21 93.64-5.76L93.64-5.76Q93.64-5.39 93.58-4.85L93.58-4.85L93.40-3.30Q93.13-1.34 92.20-0.46Q91.26 0.42 89.45 0.43L89.45 0.43L85.74 0.43L86.84-8.58ZM87.31-0.89L89.63-0.89Q90.72-0.89 91.26-1.44Q91.80-1.99 91.96-3.23L91.96-3.23L92.17-4.92Q92.22-5.40 92.22-5.59L92.22-5.59Q92.22-6.47 91.81-6.86Q91.39-7.26 90.44-7.26L90.44-7.26L88.10-7.26L87.31-0.89ZM97.14 0.43L98.24-8.58L99.66-8.58L98.56 0.43L97.14 0.43ZM104.72-8.63L105.61-8.63Q107.20-8.62 107.94-7.94Q108.68-7.26 108.68-5.81L108.68-5.81Q108.68-5.44 108.62-4.90L108.62-4.90L108.44-3.25Q108.18-1.30 107.24-0.41Q106.31 0.47 104.48 0.48L104.48 0.48L103.60 0.48Q102.01 0.47 101.27-0.20Q100.52-0.88 100.52-2.32L100.52-2.32Q100.52-2.69 100.58-3.25L100.58-3.25L100.76-4.90Q101.02-6.85 101.96-7.73Q102.90-8.62 104.72-8.63L104.72-8.63ZM102.20-4.97L101.99-3.18Q101.94-2.70 101.94-2.51L101.94-2.51Q101.94-1.63 102.35-1.24Q102.77-0.85 103.72-0.84L103.72-0.84L104.68-0.84Q105.77-0.85 106.30-1.40Q106.84-1.94 107.00-3.18L107.00-3.18L107.22-4.97Q107.27-5.45 107.27-5.64L107.27-5.64Q107.27-6.52 106.85-6.91Q106.44-7.30 105.49-7.31L105.49-7.31L104.53-7.31Q103.44-7.30 102.91-6.75Q102.37-6.20 102.20-4.97L102.20-4.97ZM112.67-7.26L109.86-7.26L110.02-8.58L117.13-8.58L116.98-7.26L114.08-7.26L113.16 0.43L111.74 0.43L112.67-7.26ZM124.20-8.58L124.73-8.58Q125.23-8.58 126.17-8.56L126.17-8.56L126.91-8.54L126.73-7.21L126.04-7.24Q124.84-7.26 124.54-7.26L124.54-7.26L124.01-7.26Q122.92-7.26 122.38-6.71Q121.85-6.16 121.68-4.92L121.68-4.92L121.46-3.18Q121.42-2.70 121.42-2.51L121.42-2.51Q121.42-1.63 121.83-1.24Q122.24-0.84 123.19-0.84L123.19-0.84L123.77-0.84Q124.40-0.84 125.83-0.92L125.83-0.92L126.13-0.94L126.04 0.38Q124.86 0.48 123.65 0.48L123.65 0.48L123.07 0.48Q121.49 0.47 120.74-0.20Q120-0.88 120-2.32L120-2.32Q120-2.69 120.06-3.25L120.06-3.25L120.24-4.85Q120.49-6.80 121.43-7.69Q122.38-8.57 124.20-8.58L124.20-8.58ZM127.45 0.43L128.56-8.58L129.97-8.58L129.02-0.89L133.70-0.89L133.55 0.43L127.45 0.43ZM139.22-8.63L140.11-8.63Q141.70-8.62 142.44-7.94Q143.18-7.26 143.18-5.81L143.18-5.81Q143.18-5.44 143.12-4.90L143.12-4.90L142.94-3.25Q142.68-1.30 141.74-0.41Q140.81 0.47 138.98 0.48L138.98 0.48L138.10 0.48Q136.51 0.47 135.77-0.20Q135.02-0.88 135.02-2.32L135.02-2.32Q135.02-2.69 135.08-3.25L135.08-3.25L135.26-4.90Q135.52-6.85 136.46-7.73Q137.40-8.62 139.22-8.63L139.22-8.63ZM136.70-4.97L136.49-3.18Q136.44-2.70 136.44-2.51L136.44-2.51Q136.44-1.63 136.85-1.24Q137.27-0.85 138.22-0.84L138.22-0.84L139.18-0.84Q140.27-0.85 140.80-1.40Q141.34-1.94 141.50-3.18L141.50-3.18L141.72-4.97Q141.77-5.45 141.77-5.64L141.77-5.64Q141.77-6.52 141.35-6.91Q140.94-7.30 139.99-7.31L139.99-7.31L139.03-7.31Q137.94-7.30 137.41-6.75Q136.87-6.20 136.70-4.97L136.70-4.97ZM147.61-0.84L148.08-0.84Q149.20-0.85 149.74-1.39Q150.28-1.93 150.44-3.14L150.44-3.14L151.10-8.58L152.52-8.58L151.87-3.22Q151.62-1.28 150.68-0.41Q149.75 0.47 147.92 0.48L147.92 0.48L147.46 0.48Q145.86 0.47 145.12-0.20Q144.37-0.88 144.37-2.32L144.37-2.32Q144.37-2.68 144.43-3.22L144.43-3.22L145.09-8.58L146.51-8.58L145.85-3.14Q145.80-2.66 145.80-2.50L145.80-2.50Q145.80-1.62 146.22-1.24Q146.64-0.85 147.61-0.84L147.61-0.84ZM154.24-8.58L157.96-8.58Q159.54-8.57 160.28-7.89Q161.03-7.21 161.03-5.76L161.03-5.76Q161.03-5.39 160.97-4.85L160.97-4.85L160.79-3.30Q160.52-1.34 159.59-0.46Q158.65 0.42 156.84 0.43L156.84 0.43L153.13 0.43L154.24-8.58ZM154.70-0.89L157.02-0.89Q158.11-0.89 158.65-1.44Q159.19-1.99 159.35-3.23L159.35-3.23L159.56-4.92Q159.61-5.40 159.61-5.59L159.61-5.59Q159.61-6.47 159.20-6.86Q158.78-7.26 157.84-7.26L157.84-7.26L155.50-7.26L154.70-0.89Z" transform="translate(-0.768, 8.628)"></path></g></g></g></g></g></g><defs v-gra="od"></defs></svg>